<?xml version="1.0" encoding="UTF-8"?>
<svg width="24px" height="29px" viewBox="0 0 24 29" version="1.1" xmlns="http://www.w3.org/2000/svg" xmlns:xlink="http://www.w3.org/1999/xlink">
    <!-- Generator: Sketch 44.1 (41455) - http://www.bohemiancoding.com/sketch -->
    <title>icon</title>
    <desc>Created with Sketch.</desc>
    <defs>
        <filter x="-1.6%" y="-8.2%" width="103.2%" height="117.8%" filterUnits="objectBoundingBox" id="filter-1">
            <feOffset dx="0" dy="0" in="SourceAlpha" result="shadowOffsetOuter1"></feOffset>
            <feGaussianBlur stdDeviation="2" in="shadowOffsetOuter1" result="shadowBlurOuter1"></feGaussianBlur>
            <feColorMatrix values="0 0 0 0 0.352941176   0 0 0 0 0.352941176   0 0 0 0 0.352941176  0 0 0 0.5 0" type="matrix" in="shadowBlurOuter1" result="shadowMatrixOuter1"></feColorMatrix>
            <feMerge>
                <feMergeNode in="shadowMatrixOuter1"></feMergeNode>
                <feMergeNode in="SourceGraphic"></feMergeNode>
            </feMerge>
        </filter>
    </defs>
    <g id="Page-1" stroke="none" stroke-width="1" fill="none" fill-rule="evenodd">
        <g id="problems-(altNav)" transform="translate(-36.000000, -614.000000)">
            <g id="footer" filter="url(#filter-1)" transform="translate(0.000000, 594.000000)">
                <g id="probA" transform="translate(0.000000, 15.000000)">
                    <g id="icon" transform="translate(28.000000, 5.000000)">
                        <rect id="Path" x="0" y="0" width="39" height="30"></rect>
                        <path d="M22.1701218,16.9213133 C22.1701218,15.7967505 22.700272,14.9027192 23.5707301,14.5167497 C24.4417098,14.1310427 25.4232569,14.3384685 26.1815829,15.0345264 C26.4248835,15.2574435 26.637413,15.3645697 26.8595911,15.2603317 C27.0875061,15.1532055 27.1247965,14.7604093 27.1247965,14.5162245 L27.1247965,10.3262238 C27.1247965,9.76617415 26.7117331,9.36602619 26.1552449,9.36602619 L22.0744184,9.36602619 C20.7134474,9.36602619 20.4101692,8.21153105 21.1064314,7.4172741 C22.2527867,6.10970399 21.6386678,4.08769647 19.5527497,4 C17.4670924,4.08743391 16.8529735,6.10602809 17.9993288,7.41386077 C18.695591,8.20838028 18.3925735,9.36602619 17.0316026,9.36602619 L13.0110144,9.36602619 C12.454787,9.36602619 12,9.76617415 12,10.3262238 L12,23.5607763 C12,24.1208259 12.454787,24.5947544 13.0110144,24.5947544 L26.1552449,24.5947544 C26.7117331,24.5947544 27.1247965,24.1208259 27.1247965,23.5607763 L27.1247965,19.3980822 C27.1247965,19.1538974 27.069252,18.7429843 26.8369039,18.6340201 C26.6061203,18.5258437 26.333874,18.6387463 26.0879657,18.8645516 C25.3327689,19.5582464 24.4078094,19.7512312 23.5462175,19.3694627 C22.6801925,18.9853312 22.1701218,18.0823726 22.1701218,16.9543964 L22.1701218,16.9344416 L22.1701218,16.9213133 Z" id="Shape" fill="#F58029" fill-rule="nonzero"></path>
                    </g>
                </g>
            </g>
        </g>
    </g>
</svg>