<?xml version="1.0" encoding="UTF-8"?>
<svg width="32px" height="29px" viewBox="0 0 32 29" version="1.1" xmlns="http://www.w3.org/2000/svg" xmlns:xlink="http://www.w3.org/1999/xlink">
    <!-- Generator: Sketch 44.1 (41455) - http://www.bohemiancoding.com/sketch -->
    <title>icon</title>
    <desc>Created with Sketch.</desc>
    <defs>
        <filter x="-1.6%" y="-8.2%" width="103.2%" height="117.8%" filterUnits="objectBoundingBox" id="filter-1">
            <feOffset dx="0" dy="0" in="SourceAlpha" result="shadowOffsetOuter1"></feOffset>
            <feGaussianBlur stdDeviation="2" in="shadowOffsetOuter1" result="shadowBlurOuter1"></feGaussianBlur>
            <feColorMatrix values="0 0 0 0 0.352941176   0 0 0 0 0.352941176   0 0 0 0 0.352941176  0 0 0 0.5 0" type="matrix" in="shadowBlurOuter1" result="shadowMatrixOuter1"></feColorMatrix>
            <feMerge>
                <feMergeNode in="shadowMatrixOuter1"></feMergeNode>
                <feMergeNode in="SourceGraphic"></feMergeNode>
            </feMerge>
        </filter>
    </defs>
    <g id="Page-1" stroke="none" stroke-width="1" fill="none" fill-rule="evenodd">
        <g id="problems-(altNav)" transform="translate(-108.000000, -614.000000)">
            <g id="footer" filter="url(#filter-1)" transform="translate(0.000000, 594.000000)">
                <g id="truthsA" transform="translate(94.000000, 15.000000)">
                    <g id="icon" transform="translate(10.000000, 5.000000)">
                        <rect id="Path" x="0" y="0" width="39" height="30"></rect>
                        <path d="M9.31857063,18.8062323 C11.8335351,20.7348164 14.3484995,22.6636684 16.8634639,24.5925205 C18.0693708,25.5171694 19.7694973,24.7267178 20.5008575,23.6314427 C23.9986785,18.3942653 27.4964996,13.1570878 30.9945865,7.91991041 C32.9148389,5.04471286 28.3065521,2.36665948 26.4033142,5.21587471 C22.9054932,10.4530521 19.4076721,15.6902296 15.9098511,20.9276748 C17.1224042,20.6073156 18.3346915,20.2869563 19.5472447,19.9665971 C17.0322802,18.0380129 14.5173158,16.1091609 12.0023514,14.1803089 C10.846159,13.2936959 9.03038654,13.9965577 8.36495779,15.1413866 C7.56527354,16.5168422 8.16796111,17.9236372 9.31857063,18.8062323 L9.31857063,18.8062323 Z" id="Shape" fill="#F58029" fill-rule="nonzero"></path>
                    </g>
                </g>
            </g>
        </g>
    </g>
</svg>