<?xml version="1.0" encoding="UTF-8"?>
<svg width="28px" height="29px" viewBox="0 0 28 29" version="1.1" xmlns="http://www.w3.org/2000/svg" xmlns:xlink="http://www.w3.org/1999/xlink">
    <!-- Generator: Sketch 44.1 (41455) - http://www.bohemiancoding.com/sketch -->
    <title>Shape</title>
    <desc>Created with Sketch.</desc>
    <defs>
        <filter x="-1.6%" y="-8.2%" width="103.2%" height="117.8%" filterUnits="objectBoundingBox" id="filter-1">
            <feOffset dx="0" dy="0" in="SourceAlpha" result="shadowOffsetOuter1"></feOffset>
            <feGaussianBlur stdDeviation="2" in="shadowOffsetOuter1" result="shadowBlurOuter1"></feGaussianBlur>
            <feColorMatrix values="0 0 0 0 0.352941176   0 0 0 0 0.352941176   0 0 0 0 0.352941176  0 0 0 0.5 0" type="matrix" in="shadowBlurOuter1" result="shadowMatrixOuter1"></feColorMatrix>
            <feMerge>
                <feMergeNode in="shadowMatrixOuter1"></feMergeNode>
                <feMergeNode in="SourceGraphic"></feMergeNode>
            </feMerge>
        </filter>
    </defs>
    <g id="Page-1" stroke="none" stroke-width="1" fill="none" fill-rule="evenodd">
        <g id="problems-(altNav)" transform="translate(-240.000000, -614.000000)" fill-rule="nonzero" fill="#F58029">
            <g id="footer" filter="url(#filter-1)" transform="translate(0.000000, 594.000000)">
                <g id="conA" transform="translate(188.000000, 15.000000)">
                    <g id="noun_676590_cc" transform="translate(49.000000, 5.000000)">
                        <path d="M19.5167669,22.4638299 L19.5167669,23.0686426 C19.5172331,23.5402783 19.168749,23.9402424 18.6996941,24.0064183 L18.553637,24.5480102 C18.4702686,24.8382142 18.2068983,25.040629 17.9037889,25.0474548 L16.4326344,25.0474548 C16.1249768,25.0538884 15.8544214,24.8459514 15.7827862,24.5480102 L15.6367292,24.0064183 C15.1676742,23.9402424 14.8191902,23.5402783 14.8196563,23.0686426 L14.8196563,22.4638299 C14.8196563,22.1414397 15.0821719,21.8800908 15.4060013,21.8800908 L18.9473561,21.8800908 C19.2626512,21.8934798 19.5125614,22.1496785 19.5167669,22.4638299 L19.5167669,22.4638299 Z M17.9630584,6.82088739 L17.9630584,4.81889421 C17.9630584,4.39292018 17.6161966,4.0476 17.1883209,4.0476 C16.7604452,4.0476 16.4135834,4.39292018 16.4135834,4.81889421 L16.4135834,6.82088739 C16.4135834,7.24686143 16.7604452,7.59218161 17.1883209,7.59218161 C17.6161966,7.59218161 17.9630584,7.24686143 17.9630584,6.82088739 Z M9.89816814,14.8478264 C10.3236618,14.8421549 10.6672088,14.5001347 10.6729056,14.0765321 C10.6729056,13.6505581 10.3260438,13.3052379 9.89816814,13.3052379 L7.88723749,13.3052379 C7.45936179,13.3052379 7.1125,13.6505581 7.1125,14.0765321 C7.1125,14.5025062 7.45936179,14.8478264 7.88723749,14.8478264 L9.89816814,14.8478264 Z M27.0672823,13.5475845 C26.9158073,13.3893397 26.7047061,13.3014534 26.4851708,13.3052379 L24.4742402,13.3052379 C24.0463645,13.3052379 23.6995027,13.6505581 23.6995027,14.0765321 C23.6995027,14.5025062 24.0463645,14.8478264 24.4742402,14.8478264 L26.4851708,14.8478264 C26.90779,14.8490359 27.2529629,14.5119694 27.2599083,14.0912837 C27.2755685,13.8915025 27.2064774,13.6943216 27.0693991,13.5475845 L27.0672823,13.5475845 Z M9.80926384,20.6346403 C9.80456139,20.9493291 9.9923829,21.2352977 10.2838345,21.3572004 C10.5752861,21.4791031 10.9119003,21.4124853 11.1343613,21.1888763 L12.5589469,19.7706222 C12.7086724,19.6247358 12.7930606,19.424957 12.7930606,19.2163862 C12.7930606,19.0078155 12.7086724,18.8080366 12.5589469,18.6621502 C12.253483,18.3794565 11.780625,18.3794565 11.4751611,18.6621502 L10.0442252,20.0867264 C9.89614452,20.2312026 9.81164924,20.4282399 9.80926384,20.6346403 L9.80926384,20.6346403 Z M24.3324167,6.9620806 C24.0230377,6.66062567 23.5283751,6.66062567 23.2189961,6.9620806 L21.7944105,8.38033471 C21.6447751,8.52635258 21.5601484,8.72597327 21.5594491,8.93457072 C21.5610176,9.14922258 21.6504607,9.35395126 21.8071111,9.50145089 C21.9611637,9.63333236 22.1564589,9.70782557 22.3595879,9.71218702 C22.5629875,9.71196653 22.7582331,9.63255147 22.9035975,9.49091409 L24.3281831,8.07265997 C24.4791274,7.92726742 24.5647024,7.7273533 24.5654995,7.51825891 C24.5662966,7.30916453 24.4822481,7.10860954 24.3324167,6.9620806 Z M11.1364781,6.9620806 C10.9409894,6.74854962 10.6433731,6.65937317 10.3619751,6.730012 C10.0805772,6.80065082 9.86101482,7.01965373 9.79059625,7.29993492 C9.72017769,7.58021611 9.81031843,7.87633952 10.0251743,8.07055261 L11.4730444,9.49091409 C11.6719378,9.6851591 11.959814,9.75901211 12.2282328,9.6846534 C12.4966516,9.61029469 12.7048338,9.39902112 12.7743592,9.13041739 C12.8438846,8.86181367 12.7641906,8.57668709 12.5652972,8.38244207 L11.1364781,6.9620806 Z M22.9035975,18.6642576 L22.9035975,18.6642576 C22.5942185,18.3628026 22.0995559,18.3628026 21.790177,18.6642576 C21.6404514,18.810144 21.5560633,19.0099228 21.5560633,19.2184936 C21.5560633,19.4270643 21.6404514,19.6268431 21.790177,19.7727296 L23.2147626,21.1909837 C23.5216406,21.4912605 24.0149236,21.4870147 24.3165409,21.1815006 C24.6181582,20.8759864 24.6138935,20.3848958 24.3070154,20.084619 L22.9035975,18.6642576 Z M11.8604131,14.2050812 C11.8833299,15.5424527 12.4125203,16.8219174 13.3421515,17.7875953 C13.8815568,18.3442666 14.2355922,19.0528696 14.3560839,19.8169842 C14.4552533,20.4820271 15.0312698,20.9727908 15.7065826,20.9676034 L16.5405896,20.9676034 L16.5405896,16.4157031 L15.1604561,15.0417036 C14.9878833,14.790621 15.019417,14.4527767 15.2355049,14.2376492 C15.4515928,14.0225217 15.7909454,13.9911281 16.0431488,14.162934 L17.1629197,15.2777281 L18.2826906,14.162934 C18.4267747,13.9533006 18.6828935,13.8498753 18.9329525,13.9003467 C19.1830114,13.9508182 19.378446,14.1453842 19.4291428,14.3943317 C19.4798395,14.6432793 19.3759525,14.8982598 19.1653833,15.0417036 L17.7852498,16.4157031 L17.7852498,20.9676034 L18.6192568,20.9676034 C19.294146,20.9671116 19.8693697,20.480077 19.9782226,19.8169842 C20.0934809,19.0543748 20.4458456,18.3468818 20.9858047,17.7939174 C22.4598036,16.2682087 22.8733882,14.0123558 22.0358405,12.0666104 C21.1982929,10.1208649 19.2722929,8.86315627 17.1459856,8.87345724 L17.1036502,8.87345724 C14.1780807,8.90702892 11.8321987,11.2924562 11.8604131,14.2050812 L11.8604131,14.2050812 Z" id="Shape"></path>
                    </g>
                </g>
            </g>
        </g>
    </g>
</svg>