<?xml version="1.0" encoding="UTF-8"?>
<svg width="32px" height="29px" viewBox="0 0 32 29" version="1.1" xmlns="http://www.w3.org/2000/svg" xmlns:xlink="http://www.w3.org/1999/xlink">
    <!-- Generator: Sketch 44.1 (41455) - http://www.bohemiancoding.com/sketch -->
    <title>Shape</title>
    <desc>Created with Sketch.</desc>
    <defs>
        <filter x="-1.6%" y="-8.2%" width="103.2%" height="117.8%" filterUnits="objectBoundingBox" id="filter-1">
            <feOffset dx="0" dy="0" in="SourceAlpha" result="shadowOffsetOuter1"></feOffset>
            <feGaussianBlur stdDeviation="2" in="shadowOffsetOuter1" result="shadowBlurOuter1"></feGaussianBlur>
            <feColorMatrix values="0 0 0 0 0.352941176   0 0 0 0 0.352941176   0 0 0 0 0.352941176  0 0 0 0.5 0" type="matrix" in="shadowBlurOuter1" result="shadowMatrixOuter1"></feColorMatrix>
            <feMerge>
                <feMergeNode in="shadowMatrixOuter1"></feMergeNode>
                <feMergeNode in="SourceGraphic"></feMergeNode>
            </feMerge>
        </filter>
    </defs>
    <g id="Page-1" stroke="none" stroke-width="1" fill="none" fill-rule="evenodd">
        <g id="problems-(altNav)" transform="translate(-108.000000, -614.000000)" fill-rule="nonzero" fill="#F58029">
            <g id="footer" filter="url(#filter-1)" transform="translate(0.000000, 594.000000)">
                <g id="truthsA" transform="translate(94.000000, 15.000000)">
                    <g id="icon" transform="translate(18.000000, 9.000000)">
                        <path d="M1.31857063,14.8062323 C3.83353506,16.7348164 6.34849949,18.6636684 8.86346392,20.5925205 C10.0693708,21.5171694 11.7694973,20.7267178 12.5008575,19.6314427 C15.9986785,14.3942653 19.4964996,9.15708783 22.9945865,3.91991041 C24.9148389,1.04471286 20.3065521,-1.63334052 18.4033142,1.21587471 C14.9054932,6.45305213 11.4076721,11.6902296 7.90985109,16.9276748 C9.12240423,16.6073156 10.3346915,16.2869563 11.5472447,15.9665971 C9.03228024,14.0380129 6.51731581,12.1091609 4.00235138,10.1803089 C2.84615896,9.29369588 1.03038654,9.99655766 0.364957791,11.1413866 C-0.43472646,12.5168422 0.167961106,13.9236372 1.31857063,14.8062323 L1.31857063,14.8062323 Z" id="Shape"></path>
                    </g>
                </g>
            </g>
        </g>
    </g>
</svg>