<?xml version="1.0" encoding="UTF-8"?>
<svg width="24px" height="29px" viewBox="0 0 24 29" version="1.1" xmlns="http://www.w3.org/2000/svg" xmlns:xlink="http://www.w3.org/1999/xlink">
    <!-- Generator: Sketch 44.1 (41455) - http://www.bohemiancoding.com/sketch -->
    <title>Shape</title>
    <desc>Created with Sketch.</desc>
    <defs>
        <filter x="-1.6%" y="-8.2%" width="103.2%" height="117.8%" filterUnits="objectBoundingBox" id="filter-1">
            <feOffset dx="0" dy="0" in="SourceAlpha" result="shadowOffsetOuter1"></feOffset>
            <feGaussianBlur stdDeviation="2" in="shadowOffsetOuter1" result="shadowBlurOuter1"></feGaussianBlur>
            <feColorMatrix values="0 0 0 0 0.352941176   0 0 0 0 0.352941176   0 0 0 0 0.352941176  0 0 0 0.5 0" type="matrix" in="shadowBlurOuter1" result="shadowMatrixOuter1"></feColorMatrix>
            <feMerge>
                <feMergeNode in="shadowMatrixOuter1"></feMergeNode>
                <feMergeNode in="SourceGraphic"></feMergeNode>
            </feMerge>
        </filter>
    </defs>
    <g id="Page-1" stroke="none" stroke-width="1" fill="none" fill-rule="evenodd">
        <g id="problems-(altNav)" transform="translate(-36.000000, -614.000000)" fill-rule="nonzero" fill="#F58029">
            <g id="footer" filter="url(#filter-1)" transform="translate(0.000000, 594.000000)">
                <g id="probA" transform="translate(0.000000, 15.000000)">
                    <g id="icon" transform="translate(40.000000, 9.000000)">
                        <path d="M10.1701218,12.9213133 C10.1701218,11.7967505 10.700272,10.9027192 11.5707301,10.5167497 C12.4417098,10.1310427 13.4232569,10.3384685 14.1815829,11.0345264 C14.4248835,11.2574435 14.637413,11.3645697 14.8595911,11.2603317 C15.0875061,11.1532055 15.1247965,10.7604093 15.1247965,10.5162245 L15.1247965,6.32622376 C15.1247965,5.76617415 14.7117331,5.36602619 14.1552449,5.36602619 L10.0744184,5.36602619 C8.71344744,5.36602619 8.4101692,4.21153105 9.10643138,3.4172741 C10.2527867,2.10970399 9.63866776,0.0876964695 7.5527497,0 C5.46709241,0.0874339052 4.85297351,2.10602809 5.99932878,3.41386077 C6.69559097,4.20838028 6.39257349,5.36602619 5.03160258,5.36602619 L1.01101442,5.36602619 C0.454786986,5.36602619 0,5.76617415 0,6.32622376 L0,19.5607763 C0,20.1208259 0.454786986,20.5947544 1.01101442,20.5947544 L14.1552449,20.5947544 C14.7117331,20.5947544 15.1247965,20.1208259 15.1247965,19.5607763 L15.1247965,15.3980822 C15.1247965,15.1538974 15.069252,14.7429843 14.8369039,14.6340201 C14.6061203,14.5258437 14.333874,14.6387463 14.0879657,14.8645516 C13.3327689,15.5582464 12.4078094,15.7512312 11.5462175,15.3694627 C10.6801925,14.9853312 10.1701218,14.0823726 10.1701218,12.9543964 L10.1701218,12.9344416 L10.1701218,12.9213133 Z" id="Shape"></path>
                    </g>
                </g>
            </g>
        </g>
    </g>
</svg>