<?xml version="1.0" encoding="UTF-8"?>
<svg width="35px" height="29px" viewBox="0 0 35 29" version="1.1" xmlns="http://www.w3.org/2000/svg" xmlns:xlink="http://www.w3.org/1999/xlink">
    <!-- Generator: Sketch 44.1 (41455) - http://www.bohemiancoding.com/sketch -->
    <title>noun_90021_cc</title>
    <desc>Created with Sketch.</desc>
    <defs>
        <filter x="-1.6%" y="-8.2%" width="103.2%" height="117.8%" filterUnits="objectBoundingBox" id="filter-1">
            <feOffset dx="0" dy="0" in="SourceAlpha" result="shadowOffsetOuter1"></feOffset>
            <feGaussianBlur stdDeviation="2" in="shadowOffsetOuter1" result="shadowBlurOuter1"></feGaussianBlur>
            <feColorMatrix values="0 0 0 0 0.352941176   0 0 0 0 0.352941176   0 0 0 0 0.352941176  0 0 0 0.5 0" type="matrix" in="shadowBlurOuter1" result="shadowMatrixOuter1"></feColorMatrix>
            <feMerge>
                <feMergeNode in="shadowMatrixOuter1"></feMergeNode>
                <feMergeNode in="SourceGraphic"></feMergeNode>
            </feMerge>
        </filter>
    </defs>
    <g id="Page-1" stroke="none" stroke-width="1" fill="none" fill-rule="evenodd">
        <g id="problems-(altNav)" transform="translate(-312.000000, -615.000000)" fill-rule="nonzero" fill="#F58029">
            <g id="footer" filter="url(#filter-1)" transform="translate(0.000000, 594.000000)">
                <g id="collabA" transform="translate(282.000000, 15.000000)">
                    <g id="collabIcon" transform="translate(28.000000, 5.000000)">
                        <g id="noun_90021_cc" transform="translate(6.000000, 5.000000)">
                            <path d="M21.0457358,11.0506053 C20.9990377,11.0430526 20.9514906,11.039 20.9044528,11.039 C20.4440943,11.039 20.0564151,11.3967368 19.9823774,11.8896842 C19.958434,12.0365 19.4603774,14.8042632 16.1383585,16.2114474 C15.3658868,16.5384211 14.4412642,16.7922632 13.3337547,16.9223158 C13.0856604,16.9514211 12.8628679,17.0835 12.7066415,17.2944211 C12.5500755,17.5053421 12.4787547,17.7695 12.5055849,18.0386316 C12.5606038,18.5903421 13.0156981,18.9991053 13.5341321,18.9368421 C14.3390377,18.8423421 15.062434,18.6885263 15.7201132,18.494 C21.0900566,16.9046316 21.7974906,12.4181842 21.827717,12.2050526 C21.9058302,11.6531579 21.5548302,11.1351579 21.0457358,11.0506053 Z" id="Shape"></path>
                            <path d="M4.60018868,12.2890526 C4.47996226,11.4354211 5.022,10.6350263 5.80873585,10.5044211 C5.88124528,10.4924474 5.95460377,10.4863684 6.02728302,10.4863684 C6.73879245,10.4863684 7.3380566,11.0393684 7.45166038,11.8014474 C7.47169811,11.9217368 7.89045283,14.2116579 10.6283208,15.5374211 C9.6045283,11.5756053 7.81437736,8.94821053 5.77528302,8.94821053 C2.90309434,8.94821053 0.522339623,14.1600789 0.0862641509,20.9777105 L11.4646415,20.9777105 C11.4235472,20.3337105 11.3647925,19.7040789 11.2902453,19.0919474 C5.40441509,17.4705263 4.63296226,12.5206053 4.60018868,12.2890526 Z" id="Shape"></path>
                            <ellipse id="Oval" cx="21.1561132" cy="4.34644737" rx="3.85709434" ry="4.18415789"></ellipse>
                            <ellipse id="Oval" cx="5.77545283" cy="4.34644737" rx="3.85709434" ry="4.18415789"></ellipse>
                            <path d="M26.8453019,20.9777105 C26.4092264,14.1600789 24.0284717,8.94821053 21.156283,8.94821053 C19.1171887,8.94821053 17.3268679,11.5759737 16.3030755,15.5383421 C19.0448491,14.2127632 19.4602075,11.921 19.4804151,11.7968421 C19.5938491,11.0391842 20.1931132,10.4861842 20.9046226,10.4861842 C20.9773019,10.4861842 21.0504906,10.4920789 21.1228302,10.5040526 C21.909566,10.6348421 22.4517736,11.4354211 22.3313774,12.2886842 C22.2986038,12.5206053 21.5237547,17.4699737 15.6416604,19.0913947 C15.5667736,19.7037105 15.5080189,20.3333421 15.4669245,20.9775263 L26.8453019,20.9775263 L26.8453019,20.9777105 Z" id="Shape"></path>
                            <path d="M12.2006038,18.7421316 C12.0941321,18.5512895 12.0228113,18.3335526 11.9992075,18.0981316 C11.9577736,17.6823684 12.0678113,17.2737895 12.3096226,16.9481053 C12.3663396,16.8718421 12.429,16.8029474 12.4957358,16.7405 C12.4432642,16.7290789 12.3916415,16.7174737 12.3398491,16.7056842 C12.2883962,16.6938947 12.237283,16.6813684 12.1870189,16.6690263 C12.1073774,16.6493158 12.0287547,16.6290526 11.9514906,16.6080526 C11.9047925,16.5953421 11.8582642,16.5824474 11.8125849,16.5691842 C11.7310755,16.5457895 11.651434,16.5212895 11.5728113,16.4962368 C11.5342642,16.4842632 11.4955472,16.4722895 11.4576792,16.4597632 C11.3651321,16.4291842 11.2746226,16.3971316 11.1856415,16.3643421 C11.1644151,16.3566053 11.1421698,16.3492368 11.1209434,16.3413158 C11.0088679,16.2991316 10.899,16.2558421 10.7928679,16.2107105 C10.7928679,16.2105263 10.7925283,16.2103421 10.7925283,16.2101579 C10.6818113,16.1631842 10.5743208,16.1145526 10.4698868,16.0648158 C10.4240377,16.0430789 10.3803962,16.0204211 10.3359057,15.9981316 C10.2729057,15.9666316 10.2105849,15.9349474 10.1497925,15.9023421 C10.1027547,15.8771053 10.056566,15.8516842 10.0112264,15.8258947 C9.95518868,15.7945789 9.90050943,15.7627105 9.84667925,15.7304737 C9.8025283,15.7041316 9.75837736,15.6779737 9.71592453,15.6510789 C9.66090566,15.6164474 9.60775472,15.5814474 9.55477358,15.5464474 C9.51724528,15.5213947 9.4785283,15.4965263 9.44201887,15.4714737 C9.36016981,15.4143684 9.2805283,15.3567105 9.20360377,15.2983158 C9.16743396,15.2710526 9.13364151,15.2430526 9.09883019,15.2156053 C9.054,15.1802368 9.00933962,15.1448684 8.96654717,15.1091316 C8.92969811,15.0781842 8.89386792,15.0470526 8.85803774,15.0159211 C8.81983019,14.9825789 8.78213208,14.9492368 8.74528302,14.9155263 C8.71081132,14.8838421 8.67633962,14.8523421 8.6430566,14.8204737 C8.60688679,14.7858421 8.57207547,14.7512105 8.53726415,14.7167632 C8.50669811,14.6861842 8.47562264,14.6556053 8.44607547,14.6248421 C8.4029434,14.5800789 8.36184906,14.5351316 8.32109434,14.4901842 C8.28067925,14.4452368 8.24128302,14.4002895 8.20273585,14.3553421 C8.17183019,14.3194211 8.14075472,14.2829474 8.11120755,14.2470263 C8.08454717,14.2142368 8.05907547,14.1816316 8.03360377,14.1490263 C8.00796226,14.1162368 7.98249057,14.0836316 7.95803774,14.0510263 C7.93341509,14.0182368 7.9094717,13.9856316 7.88603774,13.9532105 C7.86243396,13.9206053 7.84001887,13.8881842 7.81760377,13.8559474 C7.79569811,13.8242632 7.77362264,13.7925789 7.75273585,13.7610789 C7.7294717,13.7260789 7.70756604,13.6914474 7.68549057,13.6568158 C7.65492453,13.6087368 7.62554717,13.5610263 7.59735849,13.5140526 C7.57562264,13.4775789 7.55371698,13.4409211 7.53333962,13.405 C7.51601887,13.3746053 7.5000566,13.3449474 7.48375472,13.3151053 C7.46745283,13.2852632 7.45132075,13.2554211 7.43586792,13.2263158 C7.42041509,13.1966579 7.4054717,13.1673684 7.39086792,13.1382632 C7.37643396,13.1095263 7.36250943,13.0811579 7.34909434,13.0531579 C7.33567925,13.0255263 7.32226415,12.9975263 7.30969811,12.9704474 C7.2959434,12.9407895 7.28337736,12.9122368 7.27064151,12.8833158 C7.2599434,12.8593684 7.24890566,12.8348684 7.23888679,12.8116579 C7.21850943,12.7635789 7.19949057,12.7169737 7.18149057,12.6718421 C7.17249057,12.6488158 7.16433962,12.6270789 7.15601887,12.6047895 C7.14650943,12.5795526 7.137,12.5545 7.12833962,12.5303684 C7.12018868,12.5078947 7.11254717,12.4863421 7.10507547,12.4647895 C7.09743396,12.4426842 7.08996226,12.4211316 7.083,12.3997632 C7.07637736,12.3798684 7.06975472,12.3599737 7.06381132,12.341 C7.05684906,12.3190789 7.05039623,12.2982632 7.04428302,12.2774474 C7.0395283,12.2617895 7.03443396,12.2453947 7.03018868,12.2306579 C7.02067925,12.1980526 7.01218868,12.1671053 7.00454717,12.1387368 C7.00115094,12.1262105 6.99860377,12.1153421 6.99554717,12.1035526 C6.99130189,12.0866053 6.98671698,12.0696579 6.98332075,12.0547368 C6.98043396,12.0429474 6.9780566,12.0322632 6.97550943,12.0215789 C6.97262264,12.0090526 6.96990566,11.9965263 6.96735849,11.9858421 C6.96549057,11.9771842 6.96379245,11.9688947 6.96226415,11.9615263 C6.9600566,11.9506579 6.95818868,11.9410789 6.95649057,11.9326053 C6.95564151,11.9281842 6.95445283,11.9228421 6.95377358,11.9191579 C6.95173585,11.9086579 6.95020755,11.8998158 6.9495283,11.8950263 C6.87515094,11.3972895 6.48764151,11.0395526 6.02728302,11.0395526 C5.98024528,11.0395526 5.93235849,11.0434211 5.88549057,11.0511579 C5.37690566,11.1355263 5.02590566,11.6537105 5.10367925,12.2059737 C5.10469811,12.2127895 5.10656604,12.2245789 5.10877358,12.2400526 C5.11013208,12.2474211 5.11183019,12.2575526 5.11335849,12.2669474 C5.11522642,12.2774474 5.11675472,12.2864737 5.11896226,12.2993684 C5.12167925,12.3141053 5.12507547,12.3314211 5.12864151,12.3491053 C5.13067925,12.3599737 5.13254717,12.3695526 5.13492453,12.3813421 C5.13950943,12.404 5.1449434,12.4286842 5.15054717,12.4550263 C5.15275472,12.4644211 5.15445283,12.4732632 5.15683019,12.4830263 C5.16362264,12.5134211 5.17126415,12.5456579 5.17975472,12.5802895 C5.18162264,12.5878421 5.18332075,12.5953947 5.18535849,12.6031316 C5.19503774,12.642 5.20556604,12.6827105 5.21728302,12.7261842 C5.21796226,12.7291316 5.21881132,12.7317105 5.21966038,12.7344737 C5.5635283,14.0073684 6.84696226,17.2080263 11.2119623,18.4975 C11.2116226,18.4965789 11.2116226,18.4956579 11.2116226,18.4947368 C11.525434,18.5870263 11.8553774,18.6697368 12.2006038,18.7421316 Z" id="Shape"></path>
                            <path d="M13.1960377,18.9093947 C13.2823019,18.947138 13.3728113,18.9644488 13.4660377,18.9584893 C13.4431132,18.9570704 13.4201887,18.9559353 13.3970943,18.9519623 C13.3283208,18.939192 13.263283,18.9230164 13.1960377,18.9093947 Z" id="Shape"></path>
                            <path d="M12.2006038,18.7762913 C11.8553774,18.6939227 11.5252642,18.5998172 11.2116226,18.4941842 C11.2116226,18.4952322 11.2116226,18.4962801 11.2119623,18.497328 C11.5257736,18.6027514 11.8553774,18.6966474 12.2016226,18.777968 C12.201283,18.7773392 12.2009434,18.77692 12.2006038,18.7762913 Z" id="Shape"></path>
                            <path d="M13.1929811,18.9086579 C13.1943025,18.9089417 13.1956238,18.9095092 13.1969451,18.909793 C13.2841527,18.9234147 13.3684974,18.9395903 13.457687,18.9520768 C13.3671761,18.9395903 13.2819505,18.9225633 13.1929811,18.9086579 Z" id="Shape"></path>
                            <path d="M13.6717142,16.9321586 C13.6018319,16.9242127 13.5361848,16.9134289 13.467626,16.9046316 C13.4670966,16.9046316 13.4665671,16.9046316 13.4660377,16.9049154 C13.5345966,16.9134289 13.6013024,16.9239289 13.6717142,16.9321586 Z" id="Shape"></path>
                            <path d="M12.5830189,16.7592347 C12.5835483,16.7586671 12.5840777,16.7580996 12.5846071,16.7578158 C12.502813,16.7402212 12.4202248,16.7237617 12.3400189,16.7053158 C12.4204895,16.7237617 12.5012248,16.7419239 12.5830189,16.7592347 Z" id="Shape"></path>
                            <path d="M11.1211132,16.4120277 C11.0090377,16.3470413 10.8991698,16.2795007 10.7926981,16.2099737 C10.7926981,16.2102575 10.7930377,16.2105413 10.7930377,16.210825 C10.8991698,16.2806358 11.0090377,16.3470413 11.1211132,16.4120277 Z" id="Shape"></path>
                            <path d="M13.4660377,18.9594851 C13.5635094,18.9657283 13.6574151,18.9475661 13.7462264,18.9075526 C13.6749057,18.9220256 13.6066415,18.9396202 13.5343019,18.9526743 C13.5113774,18.956931 13.4887925,18.9580661 13.4660377,18.9594851 Z" id="Shape"></path>
                            <path d="M12.6344417,16.7686245 C12.5883829,16.7592596 12.5433829,16.7493272 12.4973241,16.7393947 C12.4967947,16.7396785 12.4962653,16.7402461 12.4957358,16.7408137 C12.54153,16.7507461 12.5883829,16.7592596 12.6344417,16.7686245 Z" id="Shape"></path>
                        </g>
                    </g>
                </g>
            </g>
        </g>
    </g>
</svg>